#!OML:ASF F:\VICON\USERDATA\INSTALL\rory3\rory3.ASF
:FULLY-SPECIFIED
:DEGREES
360
root -6.46798 18.0837 9.41211 -4.39222 -48.2661 3.6389
lowerback 10.3149 2.46857 -1.17896
upperback 0.805156 3.07709 -0.921064
thorax -4.95103 1.52546 -0.739937
lowerneck -20.1854 -4.82478 -9.57516
upperneck 26.8791 -6.01564 7.1666
head 12.8568 -2.76078 3.34775
rclavicle -6.21109e-014 7.90169e-015
rhumerus -32.7497 -12.5862 -79.1466
rradius 40.1275
rwrist 5.23594
rhand -12.1005 9.00628
rfingers 7.12502
rthumb 13.9602 -20.505
lclavicle -6.21109e-014 7.90169e-015
lhumerus -37.9178 8.85848 80.1323
lradius 24.8736
lwrist -15.2221
lhand -12.9267 25.8324
lfingers 7.12502
lthumb 13.1639 55.3968
rfemur -0.0608788 1.53803 19.859
rtibia 52.1779
rfoot 5.35894 0.423398
rtoes 6.42281
lfemur -13.9878 -3.17918 -24.1313
ltibia 18.783
lfoot -0.528243 -5.72114
ltoes 8.38218
361
root -6.55602 18.0947 9.533 -5.06363 -48.3233 4.24029
lowerback 10.4194 2.44966 -1.425
upperback 0.889149 3.01509 -1.0201
thorax -4.92892 1.49797 -0.698642
lowerneck -20.1492 -4.81901 -9.69305
upperneck 26.7644 -5.97332 7.20556
head 12.8044 -2.74879 3.38836
rclavicle -1.04918e-013 4.67144e-015
rhumerus -32.8608 -12.6714 -79.1358
rradius 39.9415
rwrist 5.48035
rhand -11.6535 9.25704
rfingers 7.12502
rthumb 14.3909 -20.2241
lclavicle -1.04918e-013 4.67144e-015
lhumerus -37.7748 8.28331 80.4404
lradius 25.0002
lwrist -15.0078
lhand -12.786 25.6684
lfingers 7.12502
lthumb 13.2995 55.224
rfemur -1.19581 1.30114 19.1102
rtibia 54.4617
rfoot 7.72114 0.993131
rtoes 8.29863
lfemur -13.0913 -2.98299 -24.757
ltibia 18.5423
lfoot -0.845692 -5.82886
ltoes 9.59208
362
root -6.64429 18.0976 9.64411 -5.57764 -48.4672 4.76251
lowerback 10.469 2.44234 -1.66251
upperback 0.934533 2.97007 -1.12598
thorax -4.91551 1.4788 -0.670281
lowerneck -20.2234 -4.79098 -9.7995
upperneck 26.7981 -5.92231 7.30625
head 12.8355 -2.72309 3.45535
rclavicle -4.03005e-014 7.60351e-015
rhumerus -32.91 -12.6424 -79.2635
rradius 39.7204
rwrist 5.72543
rhand -11.5061 9.33415
rfingers 7.12502
rthumb 14.5329 -20.1368
lclavicle -4.03005e-014 7.60351e-015
lhumerus -37.5674 7.69271 80.6737
lradius 25.1137
lwrist -14.8006
lhand -12.6594 25.7121
lfingers 7.12502
lthumb 13.4215 55.2597
rfemur -2.50729 1.25175 18.5
rtibia 56.737
rfoot 9.97129 1.18778
rtoes 12.2164
lfemur -12.3499 -2.28271 -25.2867
ltibia 18.3228
lfoot -1.22357 -6.33331
ltoes 10.2313
363
root -6.73445 18.0999 9.75077 -6.08276 -48.5711 5.27652
lowerback 10.5397 2.41629 -1.91132
upperback 0.973326 2.89562 -1.27026
thorax -4.91905 1.44477 -0.672393
lowerneck -20.3375 -4.7155 -9.61496
upperneck 26.8214 -5.83897 7.21692
head 12.8491 -2.67678 3.40321
rclavicle -6.46547e-014 9.39258e-015
rhumerus -32.9452 -12.5334 -79.5301
rradius 39.5294
rwrist 5.92708
rhand -11.3417 9.3422
rfingers 7.12502
rthumb 14.6913 -20.1173
lclavicle -6.46547e-014 9.39258e-015
lhumerus -37.2999 7.10319 80.7781
lradius 25.1984
lwrist -14.614
lhand -12.2764 25.9705
lfingers 7.12502
lthumb 13.7906 55.4934
rfemur -3.8431 1.15894 17.9373
rtibia 58.9811
rfoot 11.5368 1.15406
rtoes 15.5057
lfemur -11.6146 -1.72129 -25.7632
ltibia 18.119
lfoot -1.59007 -6.70575
ltoes 11.2501
364
root -6.82327 18.1043 9.85932 -6.69252 -48.6064 5.8535
lowerback 10.723 2.35176 -2.31162
upperback 0.973569 2.75196 -1.32605
thorax -5.03665 1.38095 -0.493393
lowerneck -20.2671 -4.60039 -9.45818
upperneck 26.738 -5.67851 7.05739
head 12.7724 -2.61173 3.34082
rclavicle 1.00874e-013 -8.59744e-015
rhumerus -33.1582 -12.0758 -79.7143
rradius 39.5055
rwrist 5.8716
rhand -11.2313 9.32202
rfingers 7.12502
rthumb 14.7977 -20.1297
lclavicle 1.00874e-013 -8.59744e-015
lhumerus -37.3257 6.70202 80.987
lradius 25.5001
lwrist -14.4721
lhand -11.9712 26.0712
lfingers 7.12502
lthumb 14.0847 55.5739
rfemur -5.09145 0.826349 17.2999
rtibia 61.1495
rfoot 12.4559 1.13195
rtoes 16.8026
lfemur -10.8045 -1.67468 -26.276
ltibia 17.9506
lfoot -1.91466 -6.67649
ltoes 11.6301
365
root -6.91055 18.1 9.96609 -7.28228 -48.6721 6.36504
lowerback 10.9267 2.31776 -2.65194
upperback 0.970395 2.65579 -1.34335
thorax -5.16747 1.3403 -0.315267
lowerneck -20.0863 -4.52483 -9.45571
upperneck 26.6225 -5.53962 6.92513
head 12.6699 -2.57044 3.3117
rclavicle 5.46968e-014 -1.04362e-014
rhumerus -33.3782 -11.6742 -79.7847
rradius 39.4189
rwrist 5.92815
rhand -11.1156 9.41629
rfingers 7.12502
rthumb 14.9091 -20.0272
lclavicle 5.46968e-014 -1.04362e-014
lhumerus -37.3568 6.49918 81.1985
lradius 25.7562
lwrist -14.6026
lhand -12.0166 25.8272
lfingers 7.12502
lthumb 14.041 55.3329
rfemur -6.26437 0.519639 16.7345
rtibia 63.2055
rfoot 12.1411 0.536978
rtoes 14.8267
lfemur -10.0192 -1.28983 -26.7809
ltibia 17.8347
lfoot -2.43603 -6.89648
ltoes 9.97502
366
root -6.99857 18.103 10.0716 -7.79282 -48.7827 6.84107
lowerback 10.976 2.31388 -2.91562
upperback 1.02838 2.61438 -1.37763
thorax -5.14377 1.32392 -0.19744
lowerneck -20.0938 -4.5186 -9.50587
upperneck 26.6087 -5.48301 6.83416
head 12.6591 -2.56215 3.2941
rclavicle -3.74336e-014 2.08724e-015
rhumerus -33.4216 -11.4713 -79.8365
rradius 39.2524
rwrist 6.09208
rhand -11.0933 9.473
rfingers 7.12502
rthumb 14.9306 -19.9689
lclavicle -3.74336e-014 2.08724e-015
lhumerus -37.1501 6.17433 81.415
lradius 25.9421
lwrist -14.7222
lhand -12.2576 25.5191
lfingers 7.12502
lthumb 13.8087 55.0407
rfemur -7.43527 0.310302 16.2063
rtibia 65.0973
rfoot 11.1057 -0.198326
rtoes 13.565
lfemur -9.35297 -0.721969 -27.2603
ltibia 17.7352
lfoot -2.98066 -7.24454
ltoes 8.43454
367
root -7.08533 18.1094 10.1765 -8.24834 -48.8027 7.261
lowerback 10.9777 2.29193 -3.1724
upperback 1.12462 2.55408 -1.38833
thorax -5.05329 1.29737 -0.0528526
lowerneck -20.1902 -4.50897 -9.55612
upperneck 26.6244 -5.4231 6.77385
head 12.679 -2.54668 3.28911
rclavicle -6.9643e-014 3.28989e-014
rhumerus -33.4134 -11.2002 -79.8936
rradius 39.1405
rwrist 6.23421
rhand -11.292 9.35495
rfingers 7.12502
rthumb 14.7392 -20.101
lclavicle -6.9643e-014 3.28989e-014
lhumerus -36.8667 5.75375 81.6871
lradius 26.1298
lwrist -14.7263
lhand -12.6275 25.3132
lfingers 7.12502
lthumb 13.4523 54.8588
rfemur -8.59668 0.00988996 15.7274
rtibia 66.8321
rfoot 9.56 -1.00913
rtoes 11.7018
lfemur -8.73911 -0.709294 -27.6155
ltibia 17.6847
lfoot -3.0813 -7.22755
ltoes 11.1806
368
root -7.17086 18.1045 10.2773 -8.59493 -48.7177 7.55709
lowerback 11.0737 2.20965 -3.3724
upperback 1.1609 2.41485 -1.40445
thorax -5.0729 1.23194 0.0611085
lowerneck -20.3132 -4.44604 -9.47941
upperneck 26.7681 -5.33756 6.71341
head 12.7487 -2.50857 3.26964
rclavicle 5.74239e-014 -1.00386e-014
rhumerus -33.4402 -10.9792 -79.9912
rradius 38.9292
rwrist 6.47027
rhand -11.368 9.43729
rfingers 7.12502
rthumb 14.666 -20.024
lclavicle 5.74239e-014 -1.00386e-014
lhumerus -36.6255 5.24682 81.924
lradius 26.2805
lwrist -14.6511
lhand -13.1614 25.3885
lfingers 7.12502
lthumb 12.9376 54.9675
rfemur -9.81473 -0.414447 15.3865
rtibia 68.4274
rfoot 7.95076 -1.766
rtoes 9.55926
lfemur -8.10134 -0.899042 -27.8491
ltibia 17.6857
lfoot -3.19014 -7.17365
ltoes 15.0204
369
root -7.25565 18.0967 10.3749 -9.02488 -48.6022 8.00329
lowerback 11.2423 2.11049 -3.66911
upperback 1.12216 2.2344 -1.43693
thorax -5.21275 1.15006 0.214365
lowerneck -20.3007 -4.38931 -9.47264
upperneck 26.8232 -5.22029 6.57525
head 12.7522 -2.47573 3.23609
rclavicle 1.12984e-013 -2.45499e-014
rhumerus -33.5352 -10.7053 -80.0692
rradius 38.6745
rwrist 6.67949
rhand -11.4333 9.38489
rfingers 7.12502
rthumb 14.603 -20.081
lclavicle 1.12984e-013 -2.45499e-014
lhumerus -36.5159 4.90316 82.0801
lradius 26.5589
lwrist -14.5133
lhand -13.4485 25.2192
lfingers 7.12502
lthumb 12.6608 54.8155
rfemur -11.0422 -0.871614 14.9424
rtibia 69.8615
rfoot 6.43455 -2.6455
rtoes 8.80451
lfemur -7.458 -0.90858 -28.2822
ltibia 17.638
lfoot -3.66583 -7.13723
ltoes 14.7147
370
root -7.34138 18.0926 10.4754 -9.36737 -48.5585 8.2938
lowerback 11.362 2.04004 -3.8452
upperback 1.11864 2.11337 -1.41127
thorax -5.28663 1.09506 0.354894
lowerneck -20.211 -4.37261 -9.607
upperneck 26.7898 -5.13936 6.51853
head 12.7152 -2.46302 3.25065
rclavicle 3.7533e-014 -6.95746e-015
rhumerus -33.6163 -10.5629 -80.0521
rradius 38.3677
rwrist 6.88196
rhand -11.6167 9.44426
rfingers 7.12502
rthumb 14.4263 -20.0343
lclavicle 3.7533e-014 -6.95746e-015
lhumerus -36.4374 5.00206 82.0959
lradius 26.9197
lwrist -14.7377
lhand -13.3584 25.2142
lfingers 7.12502
lthumb 12.7477 54.805
rfemur -12.156 -1.27727 14.5895
rtibia 71.0811
rfoot 4.99125 -3.54864
rtoes 8.64328
lfemur -6.78302 -0.88268 -28.6346
ltibia 17.574
lfoot -4.16051 -7.00309
ltoes 13.2542
